<mxfile host="app.diagrams.net" modified="2022-10-09T03:05:25.432Z" agent="5.0 (Windows NT 10.0; Win64; x64) AppleWebKit/537.36 (KHTML, like Gecko) Chrome/105.0.0.0 Safari/537.36" etag="Ad3CXr1xMZNmqNTVIM-h" version="20.3.7" type="github">
  <diagram id="jEP73fZ-g8rTdGey6gKn" name="Page-1">
    <mxGraphModel dx="4062" dy="1132" grid="1" gridSize="10" guides="1" tooltips="1" connect="1" arrows="1" fold="1" page="1" pageScale="1" pageWidth="2000" pageHeight="1169" math="0" shadow="0">
      <root>
        <mxCell id="0" />
        <mxCell id="1" parent="0" />
        <mxCell id="_MaQ-2QzD9ETYQqzRHq5-1" value="&lt;pre style=&quot;background-color:#151515;color:#a9b7c6;font-family:&#39;Consolas&#39;,monospace;font-size:11.3pt;&quot;&gt;&lt;span style=&quot;color:#4ec9b0;&quot;&gt;ULevelStreaming&lt;/span&gt;::&lt;span style=&quot;color:#ff8000;&quot;&gt;UpdateStreamingState&lt;/span&gt;&lt;/pre&gt;" style="text;whiteSpace=wrap;html=1;" vertex="1" parent="1">
          <mxGeometry x="40" y="540" width="560" height="70" as="geometry" />
        </mxCell>
        <mxCell id="_MaQ-2QzD9ETYQqzRHq5-2" value="&lt;pre style=&quot;background-color:#151515;color:#a9b7c6;font-family:&#39;Consolas&#39;,monospace;font-size:11.3pt;&quot;&gt;World-&amp;gt;UpdateLevelStreaming()&lt;/pre&gt;" style="text;whiteSpace=wrap;html=1;" vertex="1" parent="1">
          <mxGeometry x="-230" y="540" width="270" height="70" as="geometry" />
        </mxCell>
        <mxCell id="_MaQ-2QzD9ETYQqzRHq5-3" value="&lt;pre style=&quot;background-color:#151515;color:#a9b7c6;font-family:&#39;Consolas&#39;,monospace;font-size:11.3pt;&quot;&gt;&lt;pre style=&quot;font-family: Consolas, monospace; font-size: 11.3pt;&quot;&gt;&lt;span style=&quot;color:#4ec9b0;&quot;&gt;ULevelStreaming&lt;/span&gt;::&lt;span style=&quot;color:#ff8000;&quot;&gt;RequestLevel&lt;/span&gt;&lt;/pre&gt;&lt;/pre&gt;" style="text;whiteSpace=wrap;html=1;" vertex="1" parent="1">
          <mxGeometry x="360" y="540" width="130" height="70" as="geometry" />
        </mxCell>
        <mxCell id="_MaQ-2QzD9ETYQqzRHq5-5" value="&lt;pre style=&quot;background-color:#151515;color:#a9b7c6;font-family:&#39;Consolas&#39;,monospace;font-size:11.3pt;&quot;&gt;&lt;span style=&quot;color:#dda0dd;&quot;&gt;WorldComposition&lt;/span&gt;-&amp;gt;&lt;span style=&quot;color:#ff8000;&quot;&gt;UpdateStreamingState&lt;/span&gt;&lt;/pre&gt;" style="text;whiteSpace=wrap;html=1;" vertex="1" parent="1">
          <mxGeometry x="-230" y="430" width="350" height="70" as="geometry" />
        </mxCell>
      </root>
    </mxGraphModel>
  </diagram>
</mxfile>
